#Comment line ignore any data following # character 
#Hierarchical Translation and Rotation (.htr) file 
[Header]	
#Header keywords are followed by a single value 
FileType HTR		#Single word string
DataType HTRS		#Translation followed by rotation and scale data
FileVersion 1		#integer
NumSegments 25		#integer
NumFrames 4		#integer
DataFrameRate 30		#integer, data frame rate in this file
EulerRotationOrder ZYX
CalibrationUnits mm
RotationUnits Degrees
GlobalAxisofGravity Y
BoneLengthAxis Y
ScaleFactor 1.00
[SegmentNames&Hierarchy]
#CHILD	PARENT
BN_Tick_Root GLOBAL
BN_Torso BN_Tick_Root
BN_L_Leg_Front01 BN_Torso
BN_L_Leg_Rear01 BN_Torso
BN_MetalTop BN_Torso
BN_Neck BN_Torso
BN_R_Leg_Front01 BN_Torso
BN_R_Leg_Rear01 BN_Torso
BN_Sack BN_Torso
BN_L_Leg_Front02 BN_L_Leg_Front01
BN_L_Leg_Front03 BN_L_Leg_Front02
BN_L_Leg_Rear02 BN_L_Leg_Rear01
BN_L_Leg_Rear03 BN_L_Leg_Rear02
BN_Head BN_Neck
BN_Needle BN_Head
BN_R_Leg_Front02 BN_R_Leg_Front01
BN_R_Leg_Front03 BN_R_Leg_Front02
BN_R_Leg_Rear02 BN_R_Leg_Rear01
BN_R_Leg_Rear03 BN_R_Leg_Rear02
BN_SackDef01 BN_Sack
BN_SackDef02 BN_Sack
BN_SackDef03 BN_Sack
BN_SackDef04 BN_Sack
BN_SackDef05 BN_Sack
BN_SackDef06 BN_Sack
[BasePosition]
#SegmentName Tx, Ty, Tz, Rx, Ry, Rz, BoneLength
BN_Tick_Root 0.000000 0.000000 0.000000 -90.000000 0.000000 0.000000 10.000000 
BN_Torso 0.000000 0.000000 0.000000 0.000000 0.000000 0.000000 10.000000 
BN_L_Leg_Front01 0.000000 0.000000 0.000000 0.000000 0.000000 0.000000 10.000000 
BN_L_Leg_Rear01 0.000000 0.000000 0.000000 0.000000 0.000000 0.000000 10.000000 
BN_MetalTop 0.000000 0.000000 0.000000 0.000000 0.000000 0.000000 10.000000 
BN_Neck 0.000000 0.000000 0.000000 0.000000 0.000000 0.000000 10.000000 
BN_R_Leg_Front01 0.000000 0.000000 0.000000 0.000000 0.000000 0.000000 10.000000 
BN_R_Leg_Rear01 0.000000 0.000000 0.000000 0.000000 0.000000 0.000000 10.000000 
BN_Sack 0.000000 0.000000 0.000000 0.000000 0.000000 0.000000 10.000000 
BN_L_Leg_Front02 0.000000 0.000000 0.000000 0.000000 0.000000 0.000000 10.000000 
BN_L_Leg_Front03 0.000000 0.000000 0.000000 0.000000 0.000000 0.000000 10.000000 
BN_L_Leg_Rear02 0.000000 0.000000 0.000000 0.000000 0.000000 0.000000 10.000000 
BN_L_Leg_Rear03 0.000000 0.000000 0.000000 0.000000 0.000000 0.000000 10.000000 
BN_Head 0.000000 0.000000 0.000000 0.000000 0.000000 0.000000 10.000000 
BN_Needle 0.000000 0.000000 0.000000 0.000000 0.000000 0.000000 10.000000 
BN_R_Leg_Front02 0.000000 0.000000 0.000000 0.000000 0.000000 0.000000 10.000000 
BN_R_Leg_Front03 0.000000 0.000000 0.000000 0.000000 0.000000 0.000000 10.000000 
BN_R_Leg_Rear02 0.000000 0.000000 0.000000 0.000000 0.000000 0.000000 10.000000 
BN_R_Leg_Rear03 0.000000 0.000000 0.000000 0.000000 0.000000 0.000000 10.000000 
BN_SackDef01 0.000000 0.000000 0.000000 0.000000 0.000000 0.000000 10.000000 
BN_SackDef02 0.000000 0.000000 0.000000 0.000000 0.000000 0.000000 10.000000 
BN_SackDef03 0.000000 0.000000 0.000000 0.000000 0.000000 0.000000 10.000000 
BN_SackDef04 0.000000 0.000000 0.000000 0.000000 0.000000 0.000000 10.000000 
BN_SackDef05 0.000000 0.000000 0.000000 0.000000 0.000000 0.000000 10.000000 
BN_SackDef06 0.000000 0.000000 0.000000 0.000000 0.000000 0.000000 10.000000 
#Beginning of Data. Separated by tabs
#Fr	Tx	Ty	Tz	Rx	Ry	Rz	SF
[BN_Tick_Root]
173 -468.787781 2004.350464 270.601959 0.000000 -0.000000 19.839741 2076.152100
174 -463.268372 2016.679077 257.723389 0.000000 -0.000000 19.839741 2085.193848
175 -461.156219 2020.873047 244.206818 0.000000 -0.000000 19.839741 2087.158447
176 -461.043365 2020.022583 229.608109 0.000000 -0.000000 19.839741 2084.651611
[BN_Torso]
173 -53.402859 82.288803 113.050896 -14.130463 -14.556986 -0.108467 149.679047
174 -39.999527 74.816521 125.651184 -14.622912 -9.902606 -0.231033 151.610336
175 -34.048496 72.486526 138.510284 -14.822786 -7.983433 -0.298031 159.995926
176 -35.861126 73.135201 153.275848 -14.781669 -8.396032 -0.282447 173.574951
[BN_L_Leg_Front01]
173 -68.477791 10.734189 -26.804373 -33.745464 61.968628 175.401505 74.316254
174 -68.477791 10.734189 -26.804373 -41.452217 60.550209 171.433228 74.316254
175 -68.477791 10.734189 -26.804373 -46.116135 59.055046 168.203827 74.316254
176 -68.477791 10.734189 -26.804373 -49.029224 57.488029 165.451477 74.316254
[BN_L_Leg_Rear01]
173 -72.133743 -73.994843 -18.268616 91.802788 -2.559237 -110.842773 104.939293
174 -72.133743 -73.994843 -18.268616 92.643341 -1.361405 -114.023499 104.939293
175 -72.133743 -73.994843 -18.268616 93.091957 -0.649896 -115.716713 104.939293
176 -72.133743 -73.994843 -18.268616 93.236984 -0.397706 -116.273796 104.939293
[BN_MetalTop]
173 0.000008 13.737477 26.403606 90.000008 -12.928561 -89.999992 29.763546
174 0.000008 13.737477 26.403606 90.000008 -12.928561 -89.999992 29.763546
175 0.000008 13.737477 26.403606 90.000008 -12.928561 -89.999992 29.763546
176 0.000008 13.737477 26.403606 90.000008 -12.928561 -89.999992 29.763546
[BN_Neck]
173 0.000014 95.233284 10.002091 -89.993744 -61.485958 89.996162 95.757088
174 0.000014 95.233284 10.002091 -89.997559 -67.933975 89.996384 95.757088
175 0.000014 95.233284 10.002091 -89.995628 -71.210251 89.994461 95.757088
176 0.000014 95.233284 10.002091 -90.004623 -73.764839 90.003448 95.757088
[BN_R_Leg_Front01]
173 68.477768 10.734107 -26.804314 -72.444550 74.355988 -145.809341 74.316193
174 68.477768 10.734107 -26.804314 -70.641708 74.336952 -153.046875 74.316193
175 68.477768 10.734107 -26.804314 -69.471336 74.500397 -159.262344 74.316193
176 68.477768 10.734107 -26.804314 -69.040688 74.608536 -161.870972 74.316193
[BN_R_Leg_Rear01]
173 72.133751 -73.994873 -18.268644 -70.269547 68.284805 -65.362198 104.939331
174 72.133751 -73.994873 -18.268644 -69.035988 66.317337 -69.783394 104.939331
175 72.133751 -73.994873 -18.268644 -68.386330 65.147194 -72.455444 104.939331
176 72.133751 -73.994873 -18.268644 -68.175430 64.736824 -73.391899 104.939331
[BN_Sack]
173 -0.000000 -78.024918 33.657791 90.000740 10.316848 -90.000740 84.974907
174 -0.000000 -78.024918 33.657791 89.998825 11.676478 -90.002625 84.974907
175 -0.000000 -78.024918 33.657791 89.997719 12.665255 -90.003723 84.974907
176 -0.000000 -78.024918 33.657791 89.998718 13.477944 -90.002739 84.974907
[BN_L_Leg_Front02]
173 142.805023 -0.000015 -0.000104 -1.103163 0.934113 171.067184 142.805023
174 142.805023 -0.000015 -0.000104 -0.745627 0.972301 -163.331406 142.805023
175 142.805023 -0.000015 -0.000104 -0.445960 0.958648 -139.514832 142.805023
176 142.805023 -0.000015 -0.000104 -0.363331 0.926396 -128.398483 142.805023
[BN_L_Leg_Front03]
173 124.143021 -0.000045 0.000007 0.352815 0.002261 -179.671432 124.143021
174 124.143021 -0.000045 0.000007 0.355734 -0.047703 174.094116 124.143021
175 124.143021 -0.000045 0.000007 0.350764 -0.097278 167.395279 124.143021
176 124.143021 -0.000045 0.000007 0.355743 -0.115076 165.203659 124.143021
[BN_L_Leg_Rear02]
173 139.939041 0.000075 -0.000022 11.228198 -17.121071 -13.847137 139.939041
174 139.939041 0.000075 -0.000022 10.395750 -14.551025 -15.099118 139.939041
175 139.939041 0.000075 -0.000022 6.454559 -8.697358 -15.265165 139.939041
176 139.939041 0.000075 -0.000022 0.419841 -0.556206 -15.138899 139.939041
[BN_L_Leg_Rear03]
173 142.839615 0.000179 -0.000060 0.000120 -0.002344 -95.853432 142.839615
174 142.839615 0.000179 -0.000060 0.000043 -0.002346 -92.079102 142.839615
175 142.839615 0.000179 -0.000060 0.000005 0.002347 -89.776237 142.839615
176 142.839615 0.000179 -0.000060 0.000021 0.002347 -88.962433 142.839615
[BN_Head]
173 57.062447 -0.000030 0.000000 0.002156 0.000927 43.450733 57.062447
174 57.062447 -0.000030 0.000000 0.002206 0.000802 50.051216 57.062447
175 57.062447 -0.000030 0.000000 0.002229 0.000737 53.398380 57.062447
176 57.062447 -0.000030 0.000000 0.002245 0.000686 56.015354 57.062447
[BN_Needle]
173 32.751560 37.992092 -0.000000 0.000003 0.000030 87.896805 50.160381
174 32.437408 29.444174 -0.000057 0.000003 0.000030 87.896805 43.808044
175 32.272152 24.940514 -0.000076 0.000003 0.000030 87.896805 40.786285
176 32.106915 20.437351 -0.000095 0.000003 0.000030 87.896805 38.059681
[BN_R_Leg_Front02]
173 142.804947 -0.000060 0.000060 0.172694 0.926303 152.562683 142.804947
174 142.804947 -0.000060 0.000060 0.311562 1.039928 163.025360 142.804947
175 142.804947 -0.000060 0.000060 0.402439 1.076845 169.835281 142.804947
176 142.804947 -0.000060 0.000060 0.448061 1.104062 172.321106 142.804947
[BN_R_Leg_Front03]
173 124.143005 -0.000060 -0.000156 -0.352935 -0.228233 -149.416794 124.143005
174 124.143005 -0.000060 -0.000156 -0.352038 -0.195706 -154.443466 124.143005
175 124.143005 -0.000060 -0.000156 -0.355653 -0.172613 -157.366272 124.143005
176 124.143005 -0.000060 -0.000156 -0.352267 -0.166021 -158.374115 124.143005
[BN_R_Leg_Rear02]
173 139.939011 -0.000149 0.000015 0.066964 -0.271301 -137.909637 139.939011
174 139.939011 -0.000149 0.000015 0.086236 -0.253124 -144.168427 139.939011
175 139.939011 -0.000149 0.000015 0.088322 -0.233464 -147.551712 139.939011
176 139.939011 -0.000149 0.000015 0.095447 -0.233892 -148.714005 139.939011
[BN_R_Leg_Rear03]
173 142.839417 0.000075 0.000119 0.002041 -0.001159 149.193420 142.839417
174 142.839417 0.000075 0.000119 0.002007 -0.001217 152.458786 142.839417
175 142.839417 0.000075 0.000119 0.001990 -0.001245 154.070053 142.839417
176 142.839417 0.000075 0.000119 0.001984 -0.001254 154.607666 142.839417
[BN_SackDef01]
173 249.782272 -3.760844 42.949425 -128.408218 -44.374973 -11.740845 253.475800
174 249.782272 -3.760844 42.949425 -128.408218 -44.374973 -11.740845 253.475800
175 249.782272 -3.760844 42.949425 -128.408218 -44.374973 -11.740845 253.475800
176 249.782272 -3.760844 42.949425 -128.408218 -44.374973 -11.740845 253.475800
[BN_SackDef02]
173 138.789795 -62.131748 45.674385 32.077126 -27.375721 -88.781525 158.773758
174 138.789795 -62.131748 45.674385 32.077126 -27.375721 -88.781525 158.773758
175 138.789795 -62.131748 45.674385 32.077126 -27.375721 -88.781525 158.773758
176 138.789795 -62.131748 45.674385 32.077126 -27.375721 -88.781525 158.773758
[BN_SackDef03]
173 249.782272 -3.760785 -42.949661 18.144459 44.375008 -11.740894 253.475845
174 249.782272 -3.760785 -42.949661 18.144459 44.375008 -11.740894 253.475845
175 249.782272 -3.760785 -42.949661 18.144459 44.375008 -11.740894 253.475845
176 249.782272 -3.760785 -42.949661 18.144459 44.375008 -11.740894 253.475845
[BN_SackDef04]
173 138.789780 -62.131645 -45.674473 146.059982 27.375723 -88.781555 158.773743
174 138.789780 -62.131645 -45.674473 146.059982 27.375723 -88.781555 158.773743
175 138.789780 -62.131645 -45.674473 146.059982 27.375723 -88.781555 158.773743
176 138.789780 -62.131645 -45.674473 146.059982 27.375723 -88.781555 158.773743
[BN_SackDef05]
173 118.790161 46.167137 -63.831196 0.155741 51.314110 90.605110 142.537460
174 118.790161 46.167137 -63.831196 0.155741 51.314110 90.605110 142.537460
175 118.790161 46.167137 -63.831196 0.155741 51.314110 90.605110 142.537460
176 118.790161 46.167137 -63.831196 0.155741 51.314110 90.605110 142.537460
[BN_SackDef06]
173 118.790207 46.167194 63.831219 152.058487 -51.314072 90.605019 142.537537
174 118.790207 46.167194 63.831219 152.058487 -51.314072 90.605019 142.537537
175 118.790207 46.167194 63.831219 152.058487 -51.314072 90.605019 142.537537
176 118.790207 46.167194 63.831219 152.058487 -51.314072 90.605019 142.537537
